<svg width="782" height="345" viewBox="0 0 782 345" fill="none" xmlns="http://www.w3.org/2000/svg">
<path d="M387.842 8.94168C420.073 7.3003 477.723 23.6267 473.106 64.8226L582.987 64.8134L583.037 85.0654C602.656 84.9937 624.699 85.5951 644.081 84.9162L644.157 105.428L700.703 105.568C700.432 109.455 700.589 115.776 700.589 119.829C700.589 126.914 700.432 134.41 700.646 141.44C694.548 141.297 688.179 141.397 682.051 141.384L682.043 185.082C682.039 193.505 682.203 202.752 681.841 211.105L700.184 211.021C700.264 221.075 700.279 231.13 700.237 241.184L745.737 241.2C750.602 241.201 763.981 241.515 768.239 240.923C764.806 246.725 759.338 254.433 755.52 260.173L730.918 297.135L716.809 318.337C714.946 321.134 711.055 327.35 708.974 329.575C705.106 330.504 687.465 330.171 682.173 330.17L625.94 330.158H393.482L181.663 330.155L112.86 330.176C100.556 330.183 86.5905 330.499 74.379 330.062C72.8264 328.293 68.2547 321.075 66.6621 318.677L50.6784 294.624L27.8692 260.409C24.1321 254.806 18.4011 246.728 15.3007 241.144C22.6224 241.386 31.0312 241.173 38.4902 241.173L83.0627 241.221C83.1035 231.155 83.0753 221.09 82.9775 211.025C88.3179 211.316 95.7805 211.101 101.285 211.115C101.025 203.487 101.227 194.742 101.226 187.048L101.224 141.573C95.9657 141.091 88.1098 141.276 82.8004 141.61C83.1028 129.954 82.8343 117.142 82.8332 105.394C94.7828 106.052 107.477 105.243 119.504 105.543C125.811 105.7 132.769 105.641 139.041 105.381C138.874 100.29 139.356 89.6134 138.62 85.1795C157.515 84.4929 181.077 84.9795 200.202 85.0772C200.221 78.3566 200.172 71.6364 200.053 64.9169C236.512 64.3372 273.611 65.4237 310.076 64.7951C309.849 56.1552 310.118 49.838 314.779 42.2156C329.953 17.3996 361.289 10.8924 387.842 8.94168Z" fill="#232122"/>
<path d="M28.3437 248.421C56.0299 248.057 84.4407 248.363 112.169 248.363L271.749 248.366L754.89 248.355L725.179 292.938L705.308 322.881L77.9724 322.92L28.3437 248.421Z" fill="#FEFEFE"/>
<path d="M39.1978 254.168C65.0141 254.728 93.0679 254.196 119.016 254.196L276.976 254.194L744.03 254.178L718.569 292.425L702.12 317.204L81.0726 317.142C67.1798 296.2 52.8774 275.218 39.1978 254.168Z" fill="#232122"/>
<path d="M421.238 270.686C425.984 270.062 431.417 270.61 435.461 273.066C445.824 279.365 444.701 295.853 433.239 300.305C431.872 300.835 430.486 301.156 429.1 301.494C423.72 302.167 418.878 301.877 414.132 299.188C405.536 294.369 404.525 280.68 412.096 274.486C415.113 272.019 417.518 271.456 421.238 270.686Z" fill="#FEB812"/>
<path d="M422.868 275.666C425.724 275.494 428.844 275.716 431.391 277.087C433.796 278.366 435.575 280.566 436.324 283.181C438.325 290.023 434.262 294.817 427.843 296.492C408.729 298.213 408.324 277.925 422.868 275.666Z" fill="#232122"/>
<path d="M146.937 270.701C154.865 269.719 162.199 270.933 166.32 278.434L160.821 280.324C159.21 277.514 157.242 276.091 153.962 275.681C150.832 275.29 142.689 275.045 142.301 279.311C145.387 284.334 165.893 281.459 166.979 291.018C167.846 298.646 159.633 301.087 154.02 301.742C145.849 302.153 139.547 300.754 135.183 293.243C137.012 292.67 138.838 292.084 140.659 291.485C144.229 295.615 148.015 297.339 153.512 296.719C156.583 296.372 161.165 295.774 160.588 291.781C158.759 289.249 153.286 288.686 150.18 288.344C142.867 287.538 132.193 284.443 138.026 274.87C139.729 272.073 143.852 271.239 146.937 270.701Z" fill="#FEB812"/>
<path d="M218.039 271.376L224.297 271.37C230.736 277.925 237.588 285.665 243.876 292.487L243.952 271.367L249.656 271.399C249.641 274.893 250.026 299.964 249.219 301.012L244.16 300.941C237.838 293.753 230.436 286.092 223.826 279.066C223.605 286.003 223.762 293.982 223.755 300.996L218.044 300.986L218.039 271.376Z" fill="#FEB812"/>
<path d="M556.621 271.344L562.922 271.375C569.478 278.379 575.908 285.684 582.605 292.523C582.705 285.526 582.663 278.371 582.682 271.362L588.264 271.391C588.283 275.558 588.627 298.787 587.94 301.014L582.972 301.031C575.916 293.774 569.172 286.136 562.105 278.828C562.345 286.177 562.234 293.709 562.208 301.075L556.629 300.904C556.316 291.521 556.579 280.833 556.621 271.344Z" fill="#FEB812"/>
<path d="M453.087 271.334L459.226 271.328C465.599 277.774 472.61 285.726 478.883 292.478C478.849 285.441 478.853 278.404 478.895 271.366L484.557 271.377C484.569 274.999 484.962 299.755 484.042 300.967L479.2 300.938C472.339 293.65 465.519 286.324 458.742 278.96C458.49 286.037 458.654 293.863 458.657 300.993C456.783 301.042 454.992 300.979 453.121 300.924L453.087 271.334Z" fill="#FEB812"/>
<path d="M187.767 271.32L194.621 271.352C198.794 280.774 204.342 291.228 208.791 300.796C206.962 301.018 204.693 301.005 202.821 301.047C201.717 298.789 200.662 296.506 199.659 294.201L193.495 294.221L182.608 294.229L179.463 300.983C177.762 301.068 175.028 300.883 173.243 300.808C178.196 291.32 183.119 280.993 187.767 271.32Z" fill="#FEB812"/>
<path d="M191.051 276.519C192.297 277.513 196.277 286.971 197.137 288.918L192.159 289.145L185.111 289.149C186.97 284.892 189.033 280.704 191.051 276.519Z" fill="#232122"/>
<path d="M325.925 271.318L332.707 271.378C337.367 281.281 342.431 291.066 346.984 301.009L340.92 300.963L337.723 294.242L332.059 294.251L320.706 294.217L317.537 300.99C315.684 301.085 313.272 300.979 311.365 300.944C315.625 291.499 321.275 280.715 325.925 271.318Z" fill="#FEB812"/>
<path d="M329.129 276.582C330.298 277.604 334.501 287.111 335.426 289.109L330.765 289.189C328.295 289.201 325.745 289.121 323.268 289.075C325.102 284.856 327.057 280.69 329.129 276.582Z" fill="#232122"/>
<path d="M612.572 270.674C621.808 269.876 627.952 271.505 631.885 280.679C630.064 280.785 627.933 280.763 626.089 280.785C622.778 275.569 614.458 273.971 609.975 276.879C597.76 284.806 608.108 302.804 622.885 294.845C624.642 293.57 625.455 292.265 626.452 290.416L632.332 290.447C631.82 292.006 631.24 293.756 630.392 295.145C625.642 302.857 612.408 303.692 605.267 299.003C598.348 294.457 596.58 283.868 601.151 277.055C603.954 272.877 607.898 271.602 612.572 270.674Z" fill="#FEB812"/>
<path d="M277.457 271.363L309.73 271.376L309.724 276.293L296.511 276.309L296.524 288.327L296.505 301L290.617 301.04C290.547 292.799 290.552 284.557 290.634 276.316C286.33 276.213 281.752 276.276 277.425 276.26L277.457 271.363Z" fill="#FEB812"/>
<path d="M348.589 271.352L381.047 271.382L381.042 276.285L367.773 276.297L367.774 287.277L367.738 300.882L361.956 301.047C361.849 292.881 361.941 284.507 361.942 276.325L348.614 276.251L348.589 271.352Z" fill="#FEB812"/>
<path d="M390.496 271.366L396.399 271.393L396.38 300.979L390.569 300.993C390.328 291.394 390.511 281.025 390.496 271.366Z" fill="#FEB812"/>
<path d="M538.373 271.345L544.246 271.365L544.204 300.986L538.4 301.023C538.175 291.412 538.373 281.019 538.373 271.345Z" fill="#FEB812"/>
<path d="M262.202 271.388L267.95 271.354L267.941 300.958L262.244 301.051C262.168 291.163 262.154 281.275 262.202 271.388Z" fill="#FEB812"/>
<path d="M497.502 295.21L502.931 295.373C503 300.834 502.824 302.232 500.415 307.058C499.495 307.32 498.819 307.48 498.078 306.955C497.834 305.445 499.254 303.487 499.609 301.35L497.88 300.386C497.055 298.959 497.429 297.051 497.502 295.21Z" fill="#FEB812"/>
<path d="M643.76 295.12C645.123 295.118 645.475 295.093 646.788 295.457C648.407 297.053 648.296 298.834 647.376 300.819L646.54 301.055C642.351 301.311 640.45 299.32 642.687 295.406L643.76 295.12Z" fill="#FEB812"/>
<path d="M388.652 16.5797C405.04 16.0506 422.154 18.9882 437.202 25.6411C455.694 33.8164 472.969 50.8867 463.098 72.3931C473.645 72.6332 485.123 72.4225 495.741 72.4214L575.499 72.4939L575.457 78.2429L459.585 78.2547C454.182 84.6654 449.551 88.2231 442.338 92.3531L636.795 92.3982L636.704 98.1422C568.47 98.9368 499.995 97.5457 431.742 98.2002C426.9 98.2468 421.398 100.508 416.56 101.516C409.023 103.086 402.008 103.638 394.341 103.879C385.25 104.279 374.751 103.164 365.848 101.333C360.283 100.188 356.133 98.151 350.367 98.151C327.747 98.1514 305.119 98.1506 282.5 98.1521L146.488 98.1712C146.399 96.3611 146.42 94.2361 146.393 92.3986C166.753 92.0558 188.06 92.3738 208.534 92.373L340.926 92.3337C333.773 88.433 328.802 84.52 323.63 78.2627C285.542 77.67 245.961 78.2562 207.704 78.2364L207.703 72.4866C220.091 72.1504 233.858 72.4294 246.338 72.4283L319.996 72.4252C307.242 44.3039 339.953 24.8562 362.972 19.8617C372.033 17.8957 379.365 16.9227 388.652 16.5797Z" fill="#FEFEFE"/>
<path d="M381.981 22.6651C382.096 22.6473 382.214 22.6294 382.332 22.6115C404.525 21.1477 430.215 24.9287 448.146 38.9144C454.286 43.7043 459.31 50.5265 460.105 58.242C460.754 64.4921 458.066 71.1299 454.064 75.7859C441.341 90.5938 419.981 96.0482 401.401 97.8438C398.782 98.3406 393.589 98.1716 390.58 98.1918C367.775 98.3452 327.342 88.9547 323.198 62.5835C320.421 44.9057 343.59 31.3557 357.786 27.2853C366.163 24.8833 372.84 23.6064 381.981 22.6651Z" fill="#232122"/>
<path d="M374.445 48.7748C377.715 42.2415 379.719 34.8158 388.117 35.7443C398.305 35.8681 402.203 33.1051 407.427 42.9491C409.485 41.8126 411.516 40.6249 413.513 39.3869C411.23 43.4082 408.263 49.2644 405.945 52.9438C403.181 53.1174 392.291 53.9417 390.198 53.6506C389.415 54.1287 387.796 55.0206 386.937 55.2752C385.059 55.3588 376.555 50.0139 374.445 48.7748Z" fill="#FEB812"/>
<path d="M374.445 48.7748C377.715 42.2415 379.719 34.8158 388.117 35.7443L386.792 36.8469C389.851 38.508 390.347 39.7574 392.058 42.7094C392.417 43.3582 392.535 43.6291 393.031 44.1718C391.195 47.0944 388.423 52.1393 386.937 55.2752C385.059 55.3588 376.555 50.0139 374.445 48.7748Z" fill="#232122"/>
<path d="M374.445 48.7748C377.715 42.2415 379.719 34.8158 388.117 35.7443L386.792 36.8469C379.868 37.575 379.742 43.0792 376.29 48.1981C379.228 49.8567 383.218 51.9736 385.983 53.7341L392.058 42.7094C392.417 43.3582 392.535 43.6291 393.031 44.1718C391.195 47.0944 388.423 52.1393 386.937 55.2752C385.059 55.3588 376.555 50.0139 374.445 48.7748Z" fill="#EBB032"/>
<path d="M386.937 55.2752C388.423 52.1393 391.195 47.0944 393.031 44.1718C394.104 46.019 395.227 48.0382 396.353 49.8338C394.761 50.7967 391.573 52.6033 390.198 53.6506C389.415 54.1287 387.796 55.0206 386.937 55.2752Z" fill="#231D10"/>
<path d="M364.005 53.0819C368.894 52.8186 374.41 52.8911 379.353 52.859C380.754 55.1897 386.991 64.4738 387.331 66.582C387.819 67.1151 388.686 67.9986 389.072 68.5562L390.607 68.6932L391.118 69.4114C391.107 71.9462 391.481 80.6598 390.66 82.2756C389.912 82.5329 389.816 82.5447 389.03 82.4401C386.216 82.8542 379.657 83.0053 377.095 81.9917C374.911 81.1277 374.289 79.9163 373.325 77.9261C372.256 75.8328 370.938 73.3671 369.729 71.3555C365.555 64.4062 365.861 62.9759 369.886 56.4178L364.005 53.0819Z" fill="#FEB812"/>
<path d="M377.395 70.0907C378.003 69.4885 377.898 69.2763 378.124 68.3547C380.113 68.8088 386.72 68.592 389.072 68.5562L390.607 68.6932L391.118 69.4114C391.107 71.9462 391.481 80.6598 390.66 82.2756C389.912 82.5329 389.816 82.5447 389.03 82.4401C386.216 82.8542 379.657 83.0053 377.095 81.9917C374.911 81.1277 374.289 79.9164 373.325 77.9261L374.093 77.4422C374.247 76.6415 374.281 76.1645 374.328 75.3497C374.987 73.8086 376.196 71.2032 377.395 70.0907Z" fill="#232122"/>
<path d="M389.163 69.985L391.118 69.4114C391.107 71.9462 391.481 80.6598 390.66 82.2756C389.912 82.5329 389.816 82.5447 389.03 82.4401C386.216 82.8542 379.657 83.0053 377.095 81.9917C374.911 81.1277 374.289 79.9163 373.325 77.9261L374.093 77.4422C374.247 76.6415 374.281 76.1645 374.328 75.3497C375.746 83.5289 383.039 80.6968 389.236 81.1475C389.702 79.9324 389.797 71.1582 389.163 69.985Z" fill="#EBB032"/>
<path d="M377.395 70.0907C378.003 69.4885 377.898 69.2763 378.124 68.3547C380.113 68.8088 386.72 68.592 389.072 68.5562L390.607 68.6932L391.118 69.4114L389.163 69.985C385.269 70.238 381.301 70.1335 377.395 70.0907Z" fill="#EBC130"/>
<path d="M381.197 62.8415L387.331 66.582C387.819 67.1151 388.686 67.9986 389.072 68.5562C386.72 68.592 380.113 68.8088 378.124 68.3547L381.197 62.8415Z" fill="#231D10"/>
<path d="M412.665 50.7108C415.147 55.7633 420.188 61.1261 418.496 66.1782C416.675 69.8621 410.432 80.0946 407.129 82.334L400.21 82.2539L400.218 88.786L392.581 75.6164C394.914 71.2135 397.308 66.8445 399.767 62.5114L400.294 62.6862C400.779 61.4207 400.886 61.2802 401.833 60.3052L400.428 57.8447C403.398 55.8717 409.473 52.2286 412.665 50.7108Z" fill="#FEB812"/>
<path d="M412.665 50.7108C415.147 55.7633 420.188 61.1261 418.496 66.1782L417.415 65.6908C414.892 69.3874 412.895 69.5354 408.53 69.0557C407.27 68.7168 407.522 68.5642 406.632 69.0477C405.689 66.6766 403.196 62.6488 401.833 60.3052L400.428 57.8447C403.398 55.8717 409.473 52.2286 412.665 50.7108Z" fill="#232122"/>
<path d="M412.665 50.7108C415.147 55.7633 420.188 61.1261 418.496 66.1782L417.415 65.6908C418.133 61.5707 414.155 56.4422 411.864 52.7262C408.95 54.4489 405.311 56.7311 402.329 58.1829C404.479 61.758 406.548 65.3836 408.53 69.0557C407.27 68.7168 407.522 68.5642 406.632 69.0477C405.689 66.6766 403.196 62.6488 401.833 60.3052L400.428 57.8447C403.398 55.8717 409.473 52.2286 412.665 50.7108Z" fill="#EBB032"/>
<path d="M401.833 60.3052C403.196 62.6488 405.689 66.6766 406.632 69.0477C405.113 69.2061 401.917 69.1084 400.252 69.1C400.156 66.9521 400.237 64.8344 400.294 62.6862C400.779 61.4207 400.886 61.2802 401.833 60.3052Z" fill="#231D10"/>
<path d="M89.7444 112.652C110.324 112.135 132.907 112.602 153.648 112.601C157.905 120.861 163.991 130.998 168.662 139.237L197.015 189.263C196.768 177.93 197.145 166.492 196.98 155.161C196.92 151.017 197.668 137.937 195.485 135.267C192.327 133.89 182.642 134.418 178.604 134.431C178.463 127.34 178.589 119.778 178.6 112.652C198.735 112.167 220.686 112.601 241.004 112.639L240.99 134.447C236.93 134.5 226.3 133.578 223.604 135.811C222.144 139.419 222.771 166.373 222.773 172.049L222.736 240.213L215.156 240.171L181.017 240.173C165.208 213 149.63 184.49 134.136 157.028C135.092 175.799 133.182 196.399 134.627 215.271C134.683 216.01 134.949 216.823 135.478 217.372C138.721 218.897 148.375 218.33 152.482 218.301L152.472 240.151C132.173 240.475 110.37 240.297 90.0362 240.13C89.8808 233.029 89.9838 225.464 89.9651 218.329C93.4899 218.219 104.714 219.198 107.443 216.923C108.427 216.102 108.436 208.75 108.44 206.908L108.446 163.832C108.448 160.38 109.034 136.966 107.224 135.537C105.117 133.873 93.6193 134.425 89.7379 134.428C89.6883 127.169 89.6902 119.91 89.7444 112.652Z" fill="#FEFEFE"/>
<path d="M95.7331 118.103C112.902 118.68 132.879 118.34 150.18 118.189L197.717 202.268L202.743 202.09L202.711 146.751C202.728 129.736 201.378 128.408 184.179 128.635L184.215 118.129C201.06 118.497 218.498 117.771 235.261 118.349L235.22 128.653L234.801 128.649C217.675 128.475 216.704 130.755 216.982 147.799C217.091 154.454 216.98 162.005 216.982 168.724L216.934 234.413L212.014 234.367L184.433 234.284C178.719 223.888 172.277 213.033 166.41 202.619L133.424 144.06C132.006 143.911 129.835 143.926 128.355 143.891L128.289 190.421C128.28 198.313 128.059 206.291 128.461 214.164C129.03 225.312 138.508 224.116 146.699 224.09L146.788 234.338L95.9378 234.326C95.7602 231.089 95.8473 227.297 95.8439 224.017C100.476 224.106 107.508 224.859 111.036 221.395C115.377 217.132 114.156 207.777 114.159 201.894L114.165 170.867L114.159 148.363C114.149 131.032 114.249 128.388 95.7515 128.633C95.6938 125.123 95.6877 121.613 95.7331 118.103Z" fill="#FEB812"/>
<path d="M338.844 112.641C353.096 112.254 369.115 112.596 383.489 112.594L466.718 112.63C466.439 129.915 466.688 147.805 466.638 165.16L443.938 165.14C443.529 148.301 442.758 136.441 423.082 134.568C422.769 150.079 423.181 165.168 423.032 181.294C422.99 185.789 422.387 212.027 423.998 217.124C424.54 218.839 435.778 218.324 439.207 218.282C440.07 218.242 440.257 218.201 441.024 218.583C441.738 220.484 441.284 237.099 441.253 240.17L364.189 240.163C364.032 233.061 364.135 225.462 364.123 218.324C368.219 218.227 378.74 219.184 381.658 216.981C383.272 214.242 382.691 190.988 382.687 185.769V134.618C362.916 135.375 362.132 149.333 361.764 165.096C354.155 165.167 346.546 165.152 338.938 165.051C338.381 148.611 338.886 129.361 338.844 112.641Z" fill="#FEFEFE"/>
<path d="M344.371 118.169C355.244 118.646 369.51 118.247 380.628 118.242L460.96 118.278C461.109 131.919 461.002 145.833 460.964 159.482C457.26 159.358 453.438 159.475 449.723 159.537C448.375 136.408 439.776 129.29 417.366 128.553L417.362 189.993C417.358 198.488 416.927 208.016 417.603 216.43C417.828 219.256 420.054 221.393 422.288 222.973C426.305 224.596 431.146 224.095 435.576 224.052V234.364C413.643 234.238 391.706 234.255 369.77 234.414C369.836 230.965 369.832 227.471 369.856 224.018C371.931 224.064 374.007 224.092 376.082 224.102C390.37 224.108 388.148 214.583 388.304 204.1C388.392 198.352 388.304 192.544 388.304 186.796L388.293 128.593C365.887 128.3 356.934 137.579 356.135 159.532C352.267 159.415 348.398 159.36 344.529 159.367C344.232 145.687 344.564 131.886 344.371 118.169Z" fill="#FEB812"/>
<path d="M477.574 112.618C519.66 112.186 563.193 112.408 605.317 112.625L605.309 165.085C597.722 165.162 590.131 165.171 582.544 165.112C582.361 147.921 581.005 136.436 561.612 134.57L561.581 185.574C561.578 189.996 560.932 213.226 562.597 216.978C563.437 218.869 573.586 218.343 577.05 218.283C578.115 218.237 578.459 218.176 579.493 218.569C580.036 220.627 579.715 237.068 579.692 240.168L502.561 240.14L502.557 218.354C522.226 217.452 521.565 222.952 521.271 199.816C521.218 195.41 521.271 190.444 521.271 185.999L521.248 134.616C501.603 135.42 500.705 149.34 500.327 165.107C493.011 165.287 484.989 165.135 477.619 165.14L477.574 112.618Z" fill="#FEFEFE"/>
<path d="M483.259 118.208C495.489 118.603 510.072 118.229 522.458 118.224L599.612 118.2L599.536 159.409L588.203 159.437C587.401 136.722 577.851 128.932 555.9 128.58C555.606 157.532 555.945 186.681 556.064 215.628C556.075 218.613 558.24 220.971 560.447 222.664C564.235 224.605 569.684 224.102 573.983 224.06L574.037 234.376L508.25 234.312L508.3 224.001C525.765 224.379 527.35 222.641 526.991 204.788C526.876 198.926 526.995 192.145 526.991 186.216L527.075 128.61C503.798 128.286 496.444 137.476 494.615 159.477L483.374 159.463C482.973 146.586 483.301 131.279 483.259 118.208Z" fill="#FEB812"/>
<path d="M615.833 112.633C640.633 112.105 668.503 112.411 693.422 112.655L693.414 134.441C689.802 134.502 686.068 134.352 682.513 134.411C680.42 134.445 677.278 134.107 675.678 135.206C674.674 136.815 674.895 142.408 674.895 144.007C674.88 166.695 674.796 189.357 674.914 212.04C674.91 212.775 675.223 216.486 675.712 216.836C679.095 219.252 689.309 218.321 693.303 218.301L693.319 239.283C693.231 239.843 693.303 239.57 692.811 240.081C686.705 240.584 673.673 240.191 667.171 240.185L616.176 240.16L616.146 218.321C620.575 218.254 629.789 219 633.317 217.303C634.993 215.255 634.562 205.895 634.562 202.788L634.566 183.435L634.55 153.911C634.546 150.77 634.986 136.87 633.756 135.246C631.022 133.976 619.529 134.425 615.856 134.413L615.833 112.633Z" fill="#FEFEFE"/>
<path d="M621.667 118.239L687.728 118.188L687.763 128.651C672.119 128.465 669.106 127.734 669.026 144.157L669.019 191.868C669.019 199.554 668.774 207.508 669.255 215.148C669.897 225.308 680.481 224.117 687.599 224.038L687.538 234.173C685.399 234.721 672.879 234.372 670.198 234.372L621.984 234.315L621.992 224.02C632.958 224.204 640.285 225.025 640.228 211.31C640.156 186.742 640.404 162.166 640.117 137.604C639.991 126.749 629.705 128.502 621.694 128.618L621.667 118.239Z" fill="#FEB812"/>
<path d="M251.019 112.623C275.81 112.065 303.487 112.465 328.425 112.643L328.404 134.452C325.547 134.441 312.317 133.919 310.55 135.348C310.113 137.252 309.915 139.52 309.914 141.471C309.913 164.854 309.785 188.248 309.947 211.627C310.027 212.581 310.166 216.537 310.882 217.042C313.601 218.959 317.909 218.236 321.151 218.33C323.389 218.395 325.947 218.327 328.291 218.327C328.307 225.48 328.441 233.015 328.209 240.136C303.011 240.572 276.576 240.161 251.275 240.163L251.279 218.322C255.606 218.264 259.948 218.412 264.273 218.326C265.5 218.302 268.378 217.99 268.8 216.594C269.28 215.003 269.519 213.234 269.573 211.563C269.63 187.478 269.489 163.391 269.618 139.307C269.624 138.129 269.531 136.622 269.053 135.554C266.423 133.846 254.562 134.414 251.01 134.427C251.073 127.159 251.076 119.891 251.019 112.623Z" fill="#FEFEFE"/>
<path d="M256.619 118.347C277.888 117.837 301.258 118.151 322.615 118.266L322.645 128.682L319.5 128.627C314.305 128.551 304.815 127.998 304.4 135.657C303.955 143.855 304.259 152.369 304.229 160.613C304.165 177.411 304.229 194.221 304.228 211.02C304.234 214.14 304.519 219.045 306.912 221.22C310.995 224.929 317.298 224.124 322.516 224.013L322.561 234.382C300.77 233.998 278.615 234.704 256.84 234.259L256.863 224.069C264.874 224.122 274.78 225.446 275.17 213.894C275.313 209.685 275.427 205.371 275.343 201.119C274.903 178.905 275.918 156.243 275.185 134.066C271.002 127.247 263.706 128.546 256.63 128.642L256.619 118.347Z" fill="#FEB812"/>
</svg>